<svg xmlns="http://www.w3.org/2000/svg" viewBox="0 0 314.86 308.4"><defs><style>.cls-1{fill:#fff;}</style></defs><g id="Layer_2" data-name="Layer 2"><g id="Layer_1-2" data-name="Layer 1"><path class="cls-1" d="M187.47,228.48c7.55-1.66,15-2.89,22.29-5,28.1-8.1,44.56-27.91,47.65-56.92,1.36-12.7,2.42-25.51-2.32-37.68-2.59-6.63-6.54-12.78-10.36-18.85-1.46-2.3-2-4-1.24-6.66,3.45-12.28,2.26-24.44-2.08-36.3a4.64,4.64,0,0,0-3.48-2.33c-10.26-.42-19.13,4-28,8.43a16.7,16.7,0,0,0-3.56,2.06c-6,5.37-12.56,5.35-20.26,3.63-21.55-4.81-43.16-3.71-64.63,1.35a8.4,8.4,0,0,1-5.76-1c-10-6.18-20.17-12-31.95-14.21-8.26-1.56-9.25-1-11.48,7-3,10.91-3.37,21.83-.16,32.81a4.91,4.91,0,0,1-.73,3.94c-12.65,15-15.81,32.61-14.14,51.53.92,10.48,2.94,20.71,7.46,30.3C73.9,210,90.13,220.16,110.29,225c5.69,1.35,11.5,2.19,17.55,3.32A37.47,37.47,0,0,0,119,247.59c-.12.82-1.35,1.73-2.27,2.1-16.81,6.77-32.57,3.54-42.62-12.78C68.94,228.54,62.32,222,52.3,220a22.53,22.53,0,0,0-8.45.36c-2.84.57-3.16,2.68-1.37,4.77a18.43,18.43,0,0,0,4.44,4c8.34,5,13.65,12.44,17.07,21.18C70.15,266,82.41,272.57,98.34,273.4c6.31.32,12.68-.59,19.64-1,0,3.38,0,7.07,0,10.76.08,5.24.3,10.48.37,15.71.09,7.77-4.69,11.32-12,8.61C54.4,288.16,19.8,252,5.83,198.56-8.8,142.53,4.21,92,43.68,49.31,71.72,19,107.06,2.69,148.47.27,227.76-4.36,298.26,50.63,312,128.69c10,56.54-6.4,105.24-47.62,145.27-15.75,15.3-34.48,26.25-55.31,33.46-7.84,2.71-12.37-.53-12.3-8.92.1-13,.36-25.94.42-38.91C197.26,248.18,195.63,237.23,187.47,228.48Z"/></g></g></svg>