<svg xmlns="http://www.w3.org/2000/svg" viewBox="0 0 15.8 15.9"><defs><style>.cls-1{fill:#fff;}</style></defs><g id="Layer_2" data-name="Layer 2"><g id="Layer_1-2" data-name="Layer 1"><g id="Layer_2-2" data-name="Layer 2"><g id="Layer_1-2-2" data-name="Layer 1-2"><path class="cls-1" d="M13.15,15.9H2.77l0,0-.65,0a2.12,2.12,0,0,1-.44-.06,2.32,2.32,0,0,1-1.06-.63A1.63,1.63,0,0,1,0,14c0-.29,0-.57,0-.85A.24.24,0,0,0,0,13V2.85a.19.19,0,0,0,0-.08V2a2.36,2.36,0,0,1,0-.38A1.74,1.74,0,0,1,.6.68,2.29,2.29,0,0,1,1.48.16,2,2,0,0,1,2,0a4.66,4.66,0,0,1,.65,0l.06,0H11l.08.07.69.51.94.72.57.44L14,2.3,15,3.14c.17.13.34.28.52.41a.47.47,0,0,1,.23.46.31.31,0,0,0,0,.08v8.42a.08.08,0,0,0,0,.05c0,.54,0,1.07,0,1.6a1.11,1.11,0,0,1-.18.6,2.54,2.54,0,0,1-.77.76,2.44,2.44,0,0,1-.89.33c-.22,0-.44,0-.67,0Zm-3-15h-7L2.4.94,2,1a1.25,1.25,0,0,0-.64.41.77.77,0,0,0-.21.54V14a.69.69,0,0,0,.12.42A1.28,1.28,0,0,0,2.38,15l.79,0h8.18c.69,0,1.37,0,2.05,0a1.17,1.17,0,0,0,.53-.1,1.83,1.83,0,0,0,.49-.36.59.59,0,0,0,.14-.41,5.79,5.79,0,0,0,0-.72c0-3,0-5.93,0-8.9V4.38h-.13c-.79,0-1.58,0-2.37,0a2.09,2.09,0,0,1-.7-.2,2.37,2.37,0,0,1-.73-.5,1.7,1.7,0,0,1-.38-.51,1.84,1.84,0,0,1-.17-.86C10.11,1.83,10.12,1.39,10.12.92Z"/><path class="cls-1" d="M4.1,13.18c0-.16,0-.32,0-.48v-.35c0-.21,0-.43,0-.64a1.67,1.67,0,0,1,.3-.84A1.1,1.1,0,0,1,5,10.51l.79-.38.74-.34c.08,0,.14,0,.17.07s.15.44.23.67l.42,1.34c0,.11.1.22.15.33.11-.06.11-.17.15-.25l.06-.18a1.82,1.82,0,0,0,.06-.46A.83.83,0,0,0,7.63,11a.61.61,0,0,0-.07-.14c-.25.15-.14.36-.12.56a.87.87,0,0,1-.08-.26.44.44,0,0,1,.08-.25c.06-.08.12-.13.08-.24a.19.19,0,0,1,.09-.24,1.48,1.48,0,0,1,.29-.12.76.76,0,0,1,.26,0,.25.25,0,0,1,.15,0,1.29,1.29,0,0,1,.17.16.33.33,0,0,1,0,.14,1.91,1.91,0,0,1,0,.24l0,0a5.08,5.08,0,0,0-.23.47.38.38,0,0,0,0,.21c0,.1.1.19.15.29s0,.13,0,.19l0,.05.07.07a.35.35,0,0,0,.05-.08c.13-.35.25-.69.37-1s.27-.76.4-1.13c0-.12.07-.12.18-.08l.7.31.91.46.22.13a1.2,1.2,0,0,1,.41.81,12.43,12.43,0,0,1,.1,1.61.09.09,0,0,1,0,0Z"/><path class="cls-1" d="M10,6.4c0,.13,0,.26,0,.39s0,.22,0,.33a1.19,1.19,0,0,1,0,.53,1.27,1.27,0,0,1-.28.54,1.61,1.61,0,0,0-.29.55,1.44,1.44,0,0,1-.8.86,1.75,1.75,0,0,1-.93.11,1.09,1.09,0,0,1-.34-.13,1.61,1.61,0,0,1-.84-.9c-.12-.28-.26-.55-.38-.83a1.63,1.63,0,0,1-.18-.72A.3.3,0,0,1,6,7a.33.33,0,0,0,.11-.34,1.9,1.9,0,0,1,0-.71,1.45,1.45,0,0,1,.46-.79,2.89,2.89,0,0,1,.88-.59,1.51,1.51,0,0,1,.86-.09,1.63,1.63,0,0,1,.92.47,2,2,0,0,0,.36.28.61.61,0,0,1,.29.48c0,.24,0,.48.05.72Z"/></g></g></g></g></svg>